<svg width="44" height="44" viewBox="0 0 44 44" fill="none" xmlns="http://www.w3.org/2000/svg">
<g id="whatsapp 1">
<g id="Group">
<path id="Vector" d="M1.07031 42.6699L3.98675 32.0289C2.19353 28.9154 1.23781 25.3782 1.24766 21.7623C1.24766 10.4315 10.4699 1.21913 21.8006 1.21913C27.2985 1.21913 32.4614 3.35719 36.3336 7.2392C40.2156 11.1212 42.3536 16.2841 42.3438 21.7721C42.3438 33.1028 33.1215 42.3152 21.7908 42.3152H21.7809C18.3423 42.3152 14.9628 41.4482 11.9577 39.8126L1.07031 42.6699ZM12.47 36.0882L13.0908 36.4627C15.7116 38.0194 18.7167 38.8372 21.7809 38.847H21.7908C31.2002 38.847 38.8657 31.1914 38.8657 21.7721C38.8657 17.2103 37.0922 12.9243 33.8703 9.69255C30.6485 6.46083 26.3526 4.68732 21.7908 4.68732C12.3715 4.68732 4.706 12.343 4.706 21.7623C4.706 24.9841 5.60261 28.1272 7.317 30.8465L7.72097 31.4968L5.99672 37.7928L12.47 36.0882Z" fill="black" fill-opacity="0.24"/>
<path id="Vector_2" d="M2.00293 41.5716L4.78586 31.4227C3.07329 28.4548 2.16835 25.0784 2.16835 21.6338C2.16835 10.8329 10.9647 2.04625 21.7559 2.04625C27.0006 2.04625 31.9145 4.08966 35.6121 7.78725C39.3097 11.4848 41.3434 16.4085 41.3434 21.6435C41.3434 32.4444 32.547 41.231 21.7559 41.231H21.7461C18.467 41.231 15.2462 40.4039 12.3854 38.847L2.00293 41.5716Z" fill="url(#paint0_linear_751_452)"/>
<g id="Group_2">
<path id="Vector_3" d="M1.29248 42.2819L4.17271 31.773C2.40176 28.6981 1.4579 25.2049 1.46763 21.6338C1.46763 10.4437 10.5754 1.34566 21.7655 1.34566C27.1951 1.34566 32.2939 3.45718 36.118 7.291C39.9518 11.1248 42.0633 16.2236 42.0536 21.6435C42.0536 32.8336 32.9458 41.9316 21.7558 41.9316H21.746C18.3501 41.9316 15.0125 41.0753 12.0447 39.4601L1.29248 42.2819ZM12.5507 35.7819L13.1637 36.1517C15.752 37.6891 18.7198 38.4967 21.746 38.5065H21.7558C31.0484 38.5065 38.6187 30.9459 38.6187 21.6435C38.6187 17.1383 36.8672 12.9055 33.6854 9.7139C30.5035 6.52229 26.261 4.7708 21.7558 4.7708C12.4534 4.7708 4.88304 12.3314 4.88304 21.6338C4.88304 24.8157 5.76852 27.9197 7.46163 30.6053L7.86058 31.2475L6.15774 37.4653L12.5507 35.7819Z" fill="white"/>
<path id="Vector_4" d="M16.6857 13.139C16.3062 12.2925 15.9073 12.273 15.5472 12.2633C15.2553 12.2536 14.9147 12.2536 14.5742 12.2536C14.2336 12.2536 13.6887 12.3801 13.2216 12.886C12.7546 13.392 11.4507 14.6181 11.4507 17.1188C11.4507 19.6098 13.2703 22.023 13.5233 22.3636C13.7763 22.7041 17.036 27.9878 22.1834 30.0215C26.4649 31.7146 27.3406 31.374 28.265 31.2864C29.1991 31.1989 31.262 30.0604 31.6901 28.8733C32.1086 27.6861 32.1086 26.6742 31.9821 26.4601C31.8556 26.246 31.515 26.1195 31.009 25.8665C30.503 25.6136 28.012 24.3875 27.545 24.2124C27.0779 24.0372 26.7373 23.9594 26.4065 24.4654C26.0659 24.9713 25.0929 26.1098 24.8009 26.4504C24.509 26.7909 24.2074 26.8299 23.7014 26.5769C23.1954 26.3239 21.5607 25.7887 19.6243 24.0567C18.1161 22.7139 17.0944 21.0499 16.8025 20.544C16.5106 20.038 16.7733 19.7655 17.0263 19.5125C17.2501 19.2887 17.5323 18.919 17.7852 18.627C18.0382 18.3351 18.1258 18.1211 18.2912 17.7805C18.4567 17.4399 18.3788 17.148 18.2523 16.895C18.1258 16.642 17.1333 14.1413 16.6857 13.139Z" fill="white"/>
</g>
</g>
</g>
<defs>
<linearGradient id="paint0_linear_751_452" x1="5037.43" y1="10159.3" x2="5037.43" y2="1.47833" gradientUnits="userSpaceOnUse">
<stop stop-color="#20B038"/>
<stop offset="1" stop-color="#60D66A"/>
</linearGradient>
</defs>
</svg>
