<svg width="84" height="64" viewBox="0 0 84 64" fill="none" xmlns="http://www.w3.org/2000/svg">
<path id="Vector" d="M60.6667 22.8571C60.6667 10.2286 47.0896 0 30.3333 0C13.5771 0 0 10.2286 0 22.8571C0 27.7571 2.05625 32.2714 5.54167 36C3.5875 40.3143 0.364583 43.7429 0.320833 43.7857C0 44.1143 -0.0875 44.6 0.102083 45.0286C0.291667 45.4571 0.7 45.7143 1.16667 45.7143C6.50417 45.7143 10.9229 43.9571 14.1021 42.1429C18.7979 44.3857 24.3542 45.7143 30.3333 45.7143C47.0896 45.7143 60.6667 35.4857 60.6667 22.8571ZM78.4583 54.2857C81.9437 50.5714 84 46.0429 84 41.1429C84 31.5857 76.1979 23.4 65.1438 19.9857C65.275 20.9286 65.3333 21.8857 65.3333 22.8571C65.3333 37.9857 49.6271 50.2857 30.3333 50.2857C28.7583 50.2857 27.2271 50.1714 25.7104 50.0143C30.3042 58.2286 41.0958 64 53.6667 64C59.6458 64 65.2021 62.6857 69.8979 60.4286C73.0771 62.2429 77.4958 64 82.8333 64C83.3 64 83.7229 63.7286 83.8979 63.3143C84.0875 62.9 84 62.4143 83.6792 62.0714C83.6354 62.0286 80.4125 58.6143 78.4583 54.2857Z" fill="white"/>
</svg>
