<svg width="19" height="19" viewBox="0 0 19 19" fill="none" xmlns="http://www.w3.org/2000/svg">
<g id="Vector">
<path d="M15.6487 0.166504H3.02935C1.53589 0.166504 0.325195 1.37534 0.325195 2.8665V15.4665C0.325195 16.9577 1.53589 18.1665 3.02935 18.1665H15.6487C17.1422 18.1665 18.3529 16.9577 18.3529 15.4665V2.8665C18.3529 1.37534 17.1422 0.166504 15.6487 0.166504Z" fill="#1877F2"/>
<path d="M12.846 11.768L13.2474 9.16642H10.7475V7.47892C10.7475 6.76877 11.096 6.07267 12.2157 6.07267H13.353V3.85783C13.353 3.85783 12.3214 3.68205 11.3355 3.68205C9.27567 3.68205 7.93064 4.92658 7.93064 7.18361V9.16642H5.64196V11.768H7.93064V18.1664H10.7475V11.768H12.846Z" fill="white"/>
</g>
</svg>
