<svg width="190" height="32" viewBox="0 0 190 32" fill="none" xmlns="http://www.w3.org/2000/svg">
<g id="Group 270">
<path id="Vector" d="M167.334 0.112217C165.631 0.192216 164.469 0.464212 163.452 0.864205C162.385 1.26734 161.419 1.89829 160.622 2.71306C159.809 3.51368 159.181 4.48197 158.782 5.55035C158.387 6.56722 158.12 7.73164 158.046 9.43473C157.971 11.1378 157.953 11.6854 157.962 16.0302C157.971 20.375 157.991 20.919 158.072 22.6256C158.154 24.3287 158.424 25.4913 158.824 26.5082C159.227 27.5748 159.858 28.5407 160.673 29.3384C161.474 30.1515 162.443 30.7795 163.512 31.1784C164.529 31.5712 165.693 31.8397 167.397 31.9143C169.1 31.989 169.647 32.0068 173.992 31.9979C178.335 31.989 178.881 31.9695 180.587 31.8895C182.294 31.8077 183.451 31.5357 184.468 31.1375C185.535 30.7343 186.501 30.1033 187.298 29.2886C188.111 28.4874 188.739 27.5185 189.138 26.4495C189.533 25.4327 189.8 24.2683 189.874 22.5669C189.949 20.8603 189.967 20.3128 189.958 15.9697C189.949 11.6249 189.929 11.0809 189.849 9.37428C189.768 7.66764 189.497 6.50855 189.097 5.49168C188.694 4.42527 188.063 3.45951 187.249 2.66151C186.448 1.84842 185.479 1.22041 184.41 0.821539C183.393 0.428656 182.228 0.160217 180.525 0.0855514C178.822 0.0126637 178.275 -0.00689181 173.93 0.00199692C169.585 0.0108857 169.041 0.0286632 167.334 0.112217ZM167.521 29.0362C165.96 28.9686 165.114 28.7091 164.549 28.4922C163.854 28.2364 163.224 27.8289 162.707 27.2993C162.174 26.7846 161.764 26.1563 161.507 25.4611C161.286 24.8976 161.023 24.0514 160.95 22.4923C160.87 20.8034 160.854 20.2985 160.844 16.0266C160.837 11.7547 160.853 11.2498 160.926 9.56272C160.993 8.00364 161.253 7.15565 161.47 6.59211C161.758 5.84368 162.104 5.31213 162.664 4.75036C163.179 4.21775 163.806 3.80764 164.501 3.55038C165.064 3.32994 165.91 3.06683 167.469 2.99395C169.158 2.91395 169.663 2.89795 173.935 2.88728C178.205 2.87839 178.712 2.89439 180.401 2.96906C181.958 3.03661 182.808 3.29439 183.37 3.51305C184.118 3.80104 184.65 4.1477 185.213 4.70592C185.775 5.26591 186.121 5.79568 186.413 6.54411C186.633 7.10765 186.895 7.95208 186.969 9.51295C187.049 11.2018 187.067 11.7067 187.076 15.9768C187.083 20.247 187.069 20.7554 186.994 22.4407C186.927 24.0016 186.667 24.8478 186.45 25.4131C186.195 26.1086 185.787 26.7379 185.256 27.2549C184.741 27.7874 184.114 28.1975 183.419 28.4548C182.856 28.6753 182.008 28.9366 180.45 29.0113C178.762 29.0913 178.257 29.1073 173.985 29.1179C169.713 29.1268 169.208 29.1091 167.521 29.0362ZM180.564 7.44898C180.565 7.70112 180.615 7.95069 180.712 8.18345C180.809 8.41621 180.951 8.62761 181.129 8.80556C181.308 8.98352 181.52 9.12455 181.753 9.2206C181.986 9.31666 182.236 9.36586 182.488 9.36539C182.74 9.36493 182.989 9.3148 183.222 9.21788C183.455 9.12097 183.666 8.97915 183.844 8.80053C184.022 8.62192 184.163 8.41 184.259 8.17688C184.355 7.94376 184.405 7.694 184.404 7.44187C184.403 6.93266 184.2 6.44469 183.839 6.08529C183.479 5.72589 182.99 5.52452 182.481 5.52546C181.971 5.5264 181.483 5.72959 181.124 6.09032C180.765 6.45105 180.563 6.93977 180.564 7.44898ZM165.745 16.0159C165.747 17.0948 165.962 18.1626 166.376 19.1585C166.791 20.1543 167.398 21.0588 168.162 21.8201C168.927 22.5815 169.834 23.1848 170.831 23.5957C171.829 24.0066 172.897 24.217 173.976 24.2149C175.055 24.2128 176.123 23.9982 177.118 23.5835C178.114 23.1687 179.019 22.5618 179.78 21.7975C180.541 21.0332 181.145 20.1264 181.556 19.1289C181.967 18.1314 182.177 17.0628 182.175 15.9839C182.171 13.8052 181.301 11.7174 179.757 10.1798C178.214 8.64217 176.123 7.78073 173.944 7.78498C171.765 7.78922 169.677 8.65879 168.14 10.2024C166.602 11.746 165.741 13.8372 165.745 16.0159ZM168.627 16.0106C168.624 14.5961 169.183 13.2385 170.181 12.2363C171.179 11.2341 172.535 10.6695 173.949 10.6667C175.364 10.6639 176.721 11.2231 177.724 12.2212C178.726 13.2194 179.29 14.5748 179.293 15.9893C179.295 16.6897 179.158 17.3834 178.891 18.031C178.625 18.6786 178.233 19.2673 177.739 19.7636C177.244 20.2598 176.657 20.6538 176.011 20.9231C175.364 21.1925 174.671 21.3318 173.971 21.3332C173.27 21.3346 172.576 21.198 171.929 20.9313C171.281 20.6646 170.693 20.2729 170.196 19.7787C169.194 18.7805 168.63 17.4251 168.627 16.0106Z" fill="black"/>
<path id="Vector_2" fill-rule="evenodd" clip-rule="evenodd" d="M107.619 8.95654V9.86754C107.637 12.5168 107.167 15.1435 106.237 17.5949C105.307 20.0462 103.935 22.2733 102.201 24.1466C100.467 26.0199 98.4053 27.5021 96.1363 28.5069C93.8673 29.5116 91.4361 30.019 88.984 29.9995C85.4287 30.0172 81.9457 28.9161 78.96 26.8308C79.4848 26.8602 80.0112 26.8602 80.536 26.8308C83.4815 26.8773 86.3544 25.8424 88.6848 23.8956C87.3264 23.8546 86.0134 23.358 84.928 22.4746C83.8425 21.5912 83.0384 20.3648 82.6272 18.9655C83.0352 19.0726 83.456 19.1228 83.8768 19.1124C84.4528 19.1089 85.0288 19.0311 85.5888 18.8773C84.1273 18.5233 82.8216 17.6408 81.8876 16.3758C80.9537 15.1109 80.4475 13.5393 80.4528 11.9212C81.3584 12.4744 82.376 12.7751 83.4144 12.8028C81.9946 11.8117 80.9809 10.2699 80.582 8.4953C80.1831 6.72066 80.4295 4.84831 81.2704 3.26408C82.9207 5.46731 84.9841 7.26801 87.3248 8.5477C89.6656 9.82738 92.2306 10.557 94.8512 10.6887C94.7344 10.1594 94.6706 9.61809 94.6608 9.07409C94.6608 7.19804 95.3506 5.39883 96.5784 4.07226C97.8062 2.7457 99.4715 2.00044 101.208 2.00044C102.109 1.98955 103.002 2.1823 103.83 2.56633C104.658 2.95036 105.403 3.51717 106.016 4.2304C107.447 3.91045 108.817 3.32562 110.064 2.50175C109.584 4.14915 108.56 5.54937 107.184 6.43271C108.491 6.2708 109.766 5.88448 110.96 5.28834C110.055 6.71414 108.924 7.95597 107.619 8.95654Z" fill="black"/>
<path id="Vector_3" d="M29.6298 0H2.36222C1.05822 0 0 1.03333 0 2.30578V29.6911C0 30.9653 1.05822 32 2.36222 32H29.6298C30.9347 32 32 30.9653 32 29.6911V2.30578C32 1.03333 30.9347 0 29.6298 0ZM9.49067 27.2684H4.74222V11.9978H9.49067V27.2684ZM7.11644 9.90978C5.59511 9.90978 4.36533 8.67689 4.36533 7.15689C4.36533 5.63911 5.59511 4.40622 7.11644 4.40622C8.63422 4.40622 9.86711 5.63911 9.86711 7.15689C9.86711 8.67689 8.63422 9.90978 7.11644 9.90978ZM27.2667 27.2684H22.5258V19.8427C22.5258 18.0711 22.4911 15.7933 20.0587 15.7933C17.5884 15.7933 17.212 17.7227 17.212 19.7142V27.2689H12.4676V11.9978H17.0209V14.0831H17.0858C17.7196 12.8831 19.268 11.6169 21.5773 11.6169C26.38 11.6169 27.2671 14.7787 27.2671 18.892L27.2667 27.2684Z" fill="black"/>
</g>
</svg>
