<svg width="17" height="17" viewBox="0 0 17 17" fill="none" xmlns="http://www.w3.org/2000/svg">
<path id="Vector" d="M5.66885 8.1665C5.66885 6.6938 6.86428 5.49962 8.33931 5.49962C9.81434 5.49962 11.0104 6.6938 11.0104 8.1665C11.0104 9.63921 9.81434 10.8334 8.33931 10.8334C6.86428 10.8334 5.66885 9.63921 5.66885 8.1665ZM4.22491 8.1665C4.22491 10.4353 6.06692 12.2744 8.33931 12.2744C10.6117 12.2744 12.4537 10.4353 12.4537 8.1665C12.4537 5.8977 10.6117 4.0586 8.33931 4.0586C6.06692 4.0586 4.22491 5.8977 4.22491 8.1665ZM11.6551 3.89572C11.6549 4.42591 12.0852 4.85589 12.6162 4.8561C13.1472 4.85632 13.5779 4.42668 13.5781 3.89649C13.5783 3.36629 13.148 2.93632 12.617 2.9361C12.0862 2.93635 11.6555 3.36578 11.6551 3.89572ZM5.1022 14.6783C4.321 14.6428 3.89639 14.5129 3.61422 14.4031C3.24012 14.2577 2.97321 14.0845 2.69257 13.8047C2.41194 13.5249 2.23822 13.2587 2.09323 12.8852C1.98323 12.6036 1.8531 12.1795 1.81759 11.3995C1.77874 10.5563 1.77099 10.303 1.77099 8.16657C1.77099 6.03018 1.77939 5.77758 1.81759 4.93361C1.85317 4.15364 1.98425 3.73041 2.09323 3.44798C2.23886 3.07447 2.41232 2.80798 2.69257 2.52778C2.97282 2.24759 3.23948 2.07415 3.61422 1.92938C3.89626 1.81956 4.321 1.68964 5.1022 1.65418C5.9468 1.6154 6.20051 1.60766 8.33931 1.60766C10.4781 1.60766 10.7321 1.61604 11.5774 1.65418C12.3586 1.6897 12.7825 1.82058 13.0654 1.92938C13.4395 2.07415 13.7064 2.24798 13.987 2.52778C14.2676 2.80759 14.4407 3.07447 14.5864 3.44798C14.6964 3.72958 14.8265 4.15364 14.862 4.93361C14.9008 5.77758 14.9086 6.03018 14.9086 8.16657C14.9086 10.303 14.9008 10.5556 14.862 11.3995C14.8264 12.1795 14.6956 12.6034 14.5864 12.8852C14.4407 13.2587 14.2673 13.5252 13.987 13.8047C13.7068 14.0843 13.4395 14.2577 13.0654 14.4031C12.7833 14.5129 12.3586 14.6429 11.5774 14.6783C10.7328 14.7171 10.4791 14.7248 8.33931 14.7248C6.19955 14.7248 5.94654 14.7171 5.1022 14.6783ZM5.03585 0.214952C4.18286 0.253736 3.59999 0.388776 3.09096 0.586536C2.56379 0.79076 2.11752 1.06474 1.67157 1.50929C1.22562 1.95383 0.951903 2.4001 0.747356 2.92644C0.549284 3.43498 0.41403 4.01662 0.375185 4.86826C0.335698 5.72126 0.32666 5.99396 0.32666 8.1665C0.32666 10.339 0.335698 10.6118 0.375185 11.4647C0.41403 12.3165 0.549284 12.898 0.747356 13.4066C0.951903 13.9326 1.22568 14.3794 1.67157 14.8237C2.11746 15.2681 2.56379 15.5417 3.09096 15.7465C3.60095 15.9442 4.18286 16.0793 5.03585 16.1181C5.89064 16.1568 6.16333 16.1665 8.33931 16.1665C10.5153 16.1665 10.7884 16.1575 11.6428 16.1181C12.4958 16.0793 13.0783 15.9442 13.5877 15.7465C14.1145 15.5417 14.5611 15.2683 15.0071 14.8237C15.453 14.3792 15.7261 13.9326 15.9313 13.4066C16.1293 12.898 16.2652 12.3164 16.3034 11.4647C16.3423 10.6111 16.3513 10.339 16.3513 8.1665C16.3513 5.99396 16.3423 5.72126 16.3034 4.86826C16.2646 4.01655 16.1293 3.43466 15.9313 2.92644C15.7261 2.40042 15.4523 1.95454 15.0071 1.50929C14.5618 1.06404 14.1145 0.79076 13.5883 0.586536C13.0783 0.388776 12.4958 0.253096 11.6434 0.214952C10.7891 0.176168 10.5159 0.166504 8.33995 0.166504C6.16397 0.166504 5.89064 0.175528 5.03585 0.214952Z" fill="url(#paint0_radial_670_143)"/>
<defs>
<radialGradient id="paint0_radial_670_143" cx="0" cy="0" r="1" gradientUnits="userSpaceOnUse" gradientTransform="translate(34.3916 257.376) scale(334.715 334.2)">
<stop offset="0.09" stop-color="#FA8F21"/>
<stop offset="0.78" stop-color="#D82D7E"/>
</radialGradient>
</defs>
</svg>
