<svg width="48" height="68" viewBox="0 0 48 68" fill="none" xmlns="http://www.w3.org/2000/svg">
<path id="Vector" d="M24 10.6252C16.7809 10.6252 10.9091 16.3442 10.9091 23.3755C10.9091 24.5495 11.8855 25.5005 13.0909 25.5005C14.2964 25.5005 15.2727 24.5495 15.2727 23.3755C15.2727 18.6871 19.1891 14.8753 24 14.8753C25.2055 14.8753 26.1818 13.9243 26.1818 12.7502C26.1818 11.5762 25.2055 10.6252 24 10.6252ZM13.0991 60.9847C13.0991 61.4031 13.2259 61.8108 13.4645 62.1588L16.8068 67.0517C17.2118 67.6441 17.8936 68 18.6232 68H29.3755C30.1064 68 30.7882 67.6441 31.1918 67.0517L34.5341 62.1588C34.7714 61.8108 34.8982 61.4017 34.8995 60.9847L34.9064 55.2497H13.0936L13.0991 60.9847ZM24 0C10.0527 0 0 11.0197 0 23.3755C0 29.2685 2.24318 34.6448 5.94 38.7528C8.20909 41.2749 11.7682 46.5623 13.0882 50.993V51.001H19.6336V50.9851C19.6323 50.3515 19.5355 49.722 19.3405 49.1163C18.5782 46.7509 16.2286 40.5139 10.8627 34.5505C8.06182 31.4387 6.56455 27.4914 6.55227 23.3755C6.525 13.595 14.6891 6.37512 24 6.37512C33.6245 6.37512 41.4545 14.0014 41.4545 23.3755C41.4545 27.4887 39.9218 31.4573 37.1386 34.5505C31.8055 40.4754 29.445 46.6991 28.6705 49.0885C28.4706 49.7028 28.3685 50.3433 28.3677 50.9877V51.001H34.9132V50.9944C36.2332 46.5623 39.7923 41.2749 42.0614 38.7541C45.7568 34.6448 48 29.2685 48 23.3755C48 10.4658 37.2545 0 24 0Z" fill="#FCFCFC"/>
</svg>
