<svg width="72" height="72" viewBox="0 0 72 72" fill="none" xmlns="http://www.w3.org/2000/svg">
<path id="Vector" d="M25.9539 36.8301C26.4084 38.7984 24.2491 40.2944 22.5693 39.2444L16.8408 35.6647L9.68762 47.1119C7.81955 50.1009 9.97871 54 13.5017 54H20.8125C21.7444 54 22.5 54.7555 22.5 55.6875V61.3125C22.5 62.2444 21.7444 62.9999 20.8125 62.9999H13.5161C2.92228 62.9999 -3.54197 51.3213 2.06813 42.345L9.21498 30.8998L3.48802 27.3212C1.78913 26.2599 2.22718 23.6704 4.17413 23.2209L19.6762 19.642C20.8871 19.3624 22.0951 20.1174 22.3747 21.3281L25.9539 36.8301ZM39.814 11.1077L45.6203 20.3997L39.8912 23.9795C38.1965 25.0382 38.6256 27.6292 40.5773 28.0799L56.0794 31.6588C57.2989 31.9399 58.5003 31.1753 58.7779 29.9727L62.3568 14.4706C62.8064 12.5238 60.6707 10.9945 58.9722 12.0564L53.2506 15.6316L47.448 6.33887C42.1716 -2.10325 29.8405 -2.12266 24.552 6.33887L22.0259 10.3841C21.5323 11.1744 21.7728 12.2152 22.5631 12.709L27.333 15.6896C28.1233 16.1834 29.1645 15.9431 29.6583 15.1528L32.1841 11.1108C33.9717 8.25039 38.0866 8.3439 39.814 11.1077ZM69.9311 42.345L66.0618 36.1484C65.5681 35.3576 64.5268 35.117 63.7362 35.611L58.9745 38.5865C58.1841 39.0804 57.9437 40.1214 58.4376 40.9119L62.3137 47.1151C64.178 50.0979 62.0245 54.0001 58.4977 54.0001H45V47.2528C45 45.2541 42.5753 44.2458 41.1591 45.6619L29.9091 56.9092C29.0303 57.7878 29.0303 59.2125 29.9091 60.0911L41.1591 71.3396C42.5656 72.7464 45 71.7609 45 69.7484V62.9999H58.4831C69.0685 62.9999 75.5459 51.3285 69.9311 42.345Z" fill="white"/>
</svg>
