<svg width="19" height="15" viewBox="0 0 19 15" fill="none" xmlns="http://www.w3.org/2000/svg">
<path id="Vector" d="M5.99456 14.1665C12.7978 14.1665 16.5179 8.77929 16.5179 4.10865C16.5179 3.95578 16.5179 3.80291 16.5079 3.65141C17.2317 3.15082 17.8564 2.53104 18.3529 1.8211C17.6782 2.10713 16.9624 2.29484 16.2294 2.37797C17.0012 1.93576 17.5787 1.24072 17.8545 0.422086C17.1284 0.834077 16.3339 1.12443 15.5054 1.2806C14.9478 0.71394 14.2103 0.338721 13.4072 0.213011C12.604 0.0873006 11.7798 0.218107 11.0623 0.585188C10.3447 0.952268 9.77371 1.53516 9.43768 2.24365C9.10165 2.95214 9.0193 3.74673 9.20339 4.50446C7.73285 4.43405 6.29425 4.06884 4.98098 3.43255C3.66771 2.79626 2.50913 1.9031 1.58045 0.811079C1.107 1.58908 0.961594 2.51031 1.17384 3.38718C1.38609 4.26405 1.94004 5.03064 2.72289 5.53086C2.13834 5.51198 1.56697 5.35989 1.05636 5.08727V5.13231C1.05626 5.94756 1.35086 6.73781 1.89032 7.36931C2.42978 8.00081 3.18095 8.43477 4.01671 8.59776C3.47189 8.7396 2.90031 8.76015 2.34589 8.65782C2.58193 9.36063 3.04199 9.97531 3.66166 10.4158C4.28134 10.8564 5.02961 11.1007 5.80177 11.1146C4.49081 12.0959 2.87285 12.6275 1.20773 12.6242C0.912799 12.6243 0.618113 12.6079 0.325195 12.575C2.01639 13.6133 3.98453 14.1644 5.99456 14.1624" fill="#1DA1F2"/>
</svg>
