<svg width="202" height="58" viewBox="0 0 202 58" fill="none" xmlns="http://www.w3.org/2000/svg">
<g clip-path="url(#clip0_439_34)">
<path d="M95.3727 24.7314C95.3727 18.9015 89.2602 14.074 81.6624 13.7485C81.3996 13.7485 81.1368 13.7312 80.8654 13.7312H71.1425V47.6219H81.6681V41.4636L91.3139 47.9589L88.3119 34.1503C92.5278 32.2204 95.3727 28.7035 95.3727 24.7314ZM81.4995 31.8431C81.2568 31.8978 81.0111 31.941 80.7598 31.9756C80.2613 32.0487 79.7582 32.0853 79.2545 32.085V25.1462L79.2288 18.2044H79.2545C79.7052 18.2054 80.1554 18.2343 80.6027 18.2909C80.9083 18.3312 81.2053 18.383 81.4995 18.4493C85.1756 19.2443 87.912 21.9605 87.912 25.1462C87.912 28.3319 85.1699 31.0423 81.4995 31.8431ZM108.489 35.5559C107.124 32.8743 104.504 31.0395 101.517 31.0395C97.1465 31.0395 93.5475 34.9683 93.5475 39.7555V39.8362C93.5467 40.6776 93.6513 41.5157 93.8589 42.3306C94.8757 46.3862 98.1262 48.9929 101.06 48.1173C101.077 48.1118 101.094 48.1051 101.111 48.0971C102.748 47.8091 103.967 46.5446 103.89 45.1332C103.89 45.1188 103.89 45.1159 103.89 45.1102L100.52 45.3521L100.408 45.3665L99.2116 40.7406L98.9745 39.7958L101.522 39.7699H106.247C108.209 39.7555 109.449 37.431 108.489 35.5559ZM102.005 37.143L98.3747 37.1776V37.143C98.3747 34.9626 100.014 33.1709 102.005 33.1709C103.996 33.1709 105.636 34.9626 105.636 37.143H102.005ZM120.517 42.3968C120.211 42.8326 119.808 43.1899 119.34 43.4401C118.872 43.6902 118.353 43.8262 117.823 43.837C115.853 43.837 114.256 41.9734 114.256 39.6749C114.256 37.3763 115.853 35.5127 117.823 35.5127C118.318 35.5191 118.805 35.6358 119.249 35.8544C119.694 36.0731 120.085 36.3882 120.394 36.7772H125.007C123.979 33.3207 121.154 30.8205 117.832 30.8205C113.642 30.8205 110.24 34.7869 110.24 39.6749C110.24 44.5629 113.642 48.5292 117.832 48.5292C121.208 48.5292 124.067 45.9541 125.053 42.4026L120.517 42.3968ZM132.282 35.9419H129.529C128.883 35.9419 128.358 36.5871 128.358 37.3821V46.9363C128.358 47.7198 128.883 48.3765 129.529 48.3765H132.282C132.925 48.3765 133.45 47.7313 133.45 46.9363V37.3677C133.442 36.5813 132.925 35.9361 132.282 35.9361V35.9419ZM132.348 30.5642H129.457C129.127 30.565 128.811 30.6976 128.579 30.933C128.346 31.1685 128.215 31.4875 128.215 31.82V33.9199C128.215 34.2522 128.346 34.5709 128.579 34.8058C128.812 35.0408 129.128 35.1728 129.457 35.1728H132.348C132.511 35.1732 132.673 35.1411 132.825 35.0783C132.976 35.0156 133.113 34.9234 133.229 34.807C133.345 34.6907 133.437 34.5525 133.5 34.4002C133.563 34.248 133.596 34.0848 133.596 33.9199V31.8143C133.595 31.481 133.463 31.1615 133.229 30.9261C132.995 30.6907 132.678 30.5584 132.348 30.5584V30.5642ZM147.623 32.8426C146.512 31.6242 144.567 30.8263 142.376 30.8263C138.963 30.8263 136.152 32.7936 136.152 35.1786H136.167C136.159 35.2321 136.154 35.2859 136.152 35.3399V47.547C136.144 47.7975 136.234 48.0413 136.402 48.2257C136.57 48.41 136.804 48.5201 137.052 48.5321H139.572C139.82 48.5201 140.053 48.4099 140.221 48.2255C140.389 48.041 140.478 47.7972 140.468 47.547V40.9451H144.684C144.763 40.9414 144.837 40.9067 144.89 40.8485C144.944 40.7903 144.972 40.7133 144.97 40.634V38.0071C144.973 37.9271 144.945 37.849 144.891 37.7897C144.838 37.7305 144.764 37.6948 144.684 37.6903H140.468V35.3168C140.471 35.2622 140.471 35.2073 140.468 35.1527H146.718C147.809 35.1613 148.406 33.6865 147.623 32.8368V32.8426ZM159.989 15.782H152.379V48.6185H157.075V38.9173H163.073V48.6098H167.766V23.8385L159.989 15.782ZM162.968 33.1105H157.181V23.801H160.037L162.959 26.0852L162.968 33.1105ZM184.39 35.9332C184.39 32.7274 181.088 30.0688 176.989 29.8844C176.849 29.8844 176.704 29.8844 176.561 29.8844H171.314V48.5148H176.995V45.1131L182.205 48.6847L180.571 41.0949C182.856 40.0378 184.396 38.0993 184.396 35.9188L184.39 35.9332ZM176.989 39.8967C176.848 39.9324 176.705 39.9593 176.561 39.9773C176.273 40.0204 175.981 40.0416 175.69 40.0407V35.9188V31.8114C175.951 31.8102 176.213 31.8266 176.472 31.8604C176.646 31.8811 176.819 31.9119 176.989 31.9525C179.12 32.4249 180.703 34.0322 180.703 35.9188C180.703 37.8055 179.126 39.4128 176.995 39.8823L176.989 39.8967ZM196.764 24.4491H183.833L179.163 26.0161V28.0669H188.123V48.6991H192.853V28.0525H201.811V26.1226L196.764 24.4491Z" fill="white"/>
<path d="M14.7729 17.1187H0V21.9116H14.7729V17.1187Z" fill="#1450EA"/>
<path d="M15.687 31.2066H49.5801V22.9629H15.687V31.2066ZM40.854 25.8663C40.854 24.8784 41.8423 24.0632 43.0391 24.0632C44.2359 24.0632 45.2214 24.8784 45.2214 25.8663V28.8994H40.854V25.8663ZM30.4684 25.8663C30.4684 24.8784 31.4539 24.0632 32.6535 24.0632C33.8532 24.0632 34.8386 24.8784 34.8386 25.8663V28.8994H30.4684V25.8663ZM20.0857 25.8663C20.0857 24.8784 21.0683 24.0632 22.2679 24.0632C23.4676 24.0632 24.453 24.8784 24.453 25.8663V28.8994H20.0857V25.8663Z" fill="#1450EA"/>
<path d="M15.6755 16.0703V12.1904L14.6615 11.1967H23.2733C23.7132 7.38591 27.2722 4.31254 31.6995 3.93521L29.4001 7.4752H35.8726L33.5875 3.92944C38.0091 4.31542 41.5624 7.38591 41.9851 11.2053H50.6084L49.5687 12.2278V16.0588H45.2413V15.4078C45.2413 15.1946 44.81 15.0189 44.2787 15.0189C43.7475 15.0189 43.3162 15.1946 43.3162 15.4078V16.0588H37.3379V15.4078C37.3379 15.1946 36.9009 15.0189 36.3753 15.0189C35.8497 15.0189 35.4156 15.1946 35.4156 15.4078V16.0588H29.6144V15.4827C29.6144 15.2695 29.1831 15.0938 28.6518 15.0938C28.1205 15.0938 27.6949 15.2695 27.6949 15.4827V16.0588H22.2479V15.4078C22.2479 15.1946 21.8137 15.0189 21.2882 15.0189C20.7626 15.0189 20.3256 15.1946 20.3256 15.4078V16.0588L15.6755 16.0703Z" fill="#1450EA"/>
<path d="M51.3339 31.1202H64.4302C64.5403 31.1202 64.6494 31.0982 64.7511 31.0556C64.8528 31.0131 64.9452 30.9506 65.0229 30.872C65.1007 30.7933 65.1623 30.6999 65.2042 30.5972C65.2461 30.4944 65.2674 30.3844 65.2671 30.2733V23.8069C65.2671 23.583 65.1789 23.3684 65.0219 23.2101C64.865 23.0518 64.6521 22.9629 64.4302 22.9629H51.3339C51.1117 22.9629 50.8985 23.0517 50.7411 23.2099C50.5837 23.3681 50.4949 23.5828 50.4941 23.8069V30.2733C50.4941 30.4979 50.5826 30.7133 50.7401 30.8721C50.8976 31.0309 51.1112 31.1202 51.3339 31.1202ZM61.1968 26.3646C61.1968 25.2816 61.7681 24.3858 62.4707 24.3858C63.1734 24.3858 63.7418 25.2816 63.7418 26.3646V28.8504C63.7422 28.9615 63.7208 29.0715 63.6789 29.1743C63.637 29.277 63.5754 29.3704 63.4977 29.449C63.4199 29.5277 63.3275 29.5901 63.2258 29.6327C63.1241 29.6753 63.015 29.6972 62.9049 29.6972H62.0337C61.9236 29.6972 61.8145 29.6753 61.7128 29.6327C61.611 29.5901 61.5187 29.5277 61.4409 29.449C61.3632 29.3704 61.3016 29.277 61.2597 29.1743C61.2178 29.0715 61.1964 28.9615 61.1968 28.8504V26.3646ZM56.4896 26.3646C56.4896 25.2816 57.0608 24.3858 57.7663 24.3858C58.4719 24.3858 59.0346 25.2816 59.0346 26.3646V28.8504C59.0349 28.9617 59.0135 29.072 58.9714 29.1749C58.9293 29.2778 58.8675 29.3713 58.7894 29.4501C58.7114 29.5288 58.6187 29.5911 58.5166 29.6336C58.4145 29.676 58.3052 29.6976 58.1948 29.6972H57.3379C57.2278 29.6972 57.1187 29.6753 57.017 29.6327C56.9152 29.5901 56.8229 29.5277 56.7451 29.449C56.6674 29.3704 56.6058 29.277 56.5639 29.1743C56.522 29.0715 56.5006 28.9615 56.501 28.8504L56.4896 26.3646ZM51.7852 26.3646C51.7852 25.2816 52.3565 24.3858 53.0563 24.3858C53.7561 24.3858 54.3302 25.2816 54.3302 26.3646V28.8504C54.3306 28.9615 54.3092 29.0715 54.2673 29.1743C54.2254 29.277 54.1638 29.3704 54.0861 29.449C54.0083 29.5277 53.9159 29.5901 53.8142 29.6327C53.7125 29.6753 53.6034 29.6972 53.4933 29.6972H52.6364C52.5262 29.6972 52.4172 29.6753 52.3155 29.6327C52.2137 29.5901 52.1213 29.5277 52.0436 29.449C51.9658 29.3704 51.9043 29.277 51.8624 29.1743C51.8205 29.0715 51.7991 28.9615 51.7995 28.8504L51.7852 26.3646Z" fill="#1450EA"/>
<path d="M14.7729 16.0614H7.38932H0C0 9.40483 2.95059 3.85432 6.67809 3.22064V1.75452C6.67809 1.56354 6.75332 1.38038 6.88724 1.24534C7.02116 1.11029 7.20279 1.03442 7.39217 1.03442C7.58156 1.03442 7.76319 1.11029 7.8971 1.24534C8.03102 1.38038 8.10625 1.56354 8.10625 1.75452V3.22064C11.8223 3.85144 14.7729 9.40195 14.7729 16.0614Z" fill="#1450EA"/>
<path d="M65.2728 16.0614H57.8835H50.4941C50.4941 9.40195 53.4504 3.85144 57.1751 3.22064V1.75452C57.1751 1.56354 57.2503 1.38038 57.3842 1.24534C57.5182 1.11029 57.6998 1.03442 57.8892 1.03442C58.0786 1.03442 58.2602 1.11029 58.3941 1.24534C58.528 1.38038 58.6033 1.56354 58.6033 1.75452V3.22064C62.3193 3.85144 65.2728 9.40195 65.2728 16.0614Z" fill="#1450EA"/>
<path d="M65.2699 17.1187H50.4941V21.9116H65.2699V17.1187Z" fill="#1450EA"/>
<path d="M0.794064 31.2066H13.9789C14.1895 31.2066 14.3914 31.1222 14.5403 30.972C14.6893 30.8219 14.7729 30.6182 14.7729 30.4058V23.7636C14.7729 23.5513 14.6893 23.3476 14.5403 23.1974C14.3914 23.0473 14.1895 22.9629 13.9789 22.9629H0.794064C0.689681 22.9625 0.586255 22.983 0.489745 23.0231C0.393235 23.0632 0.305548 23.1222 0.231738 23.1966C0.157927 23.271 0.099452 23.3594 0.0596805 23.4568C0.019909 23.5541 -0.000372344 23.6584 5.17497e-06 23.7636V30.4058C-0.000372344 30.5111 0.019909 30.6154 0.0596805 30.7127C0.099452 30.81 0.157927 30.8985 0.231738 30.9729C0.305548 31.0473 0.393235 31.1063 0.489745 31.1464C0.586255 31.1865 0.689681 31.207 0.794064 31.2066ZM10.6998 26.4021C10.6998 25.3047 11.2711 24.4002 11.9737 24.4002C12.6764 24.4002 13.2476 25.3047 13.2476 26.4021V28.9685C13.248 29.0738 13.2277 29.1781 13.188 29.2754C13.1482 29.3727 13.0897 29.4611 13.0159 29.5356C12.9421 29.61 12.8544 29.669 12.7579 29.7091C12.6614 29.7492 12.558 29.7696 12.4536 29.7693H11.4939C11.2833 29.7693 11.0813 29.6849 10.9324 29.5347C10.7835 29.3846 10.6998 29.1809 10.6998 28.9685V26.4021ZM6.1154 26.4021C6.1154 25.3047 6.68666 24.4002 7.38932 24.4002C8.09198 24.4002 8.66039 25.3047 8.66039 26.4021V28.9685C8.66076 29.0735 8.64057 29.1776 8.60098 29.2747C8.56139 29.3719 8.50317 29.4602 8.42966 29.5345C8.35615 29.6089 8.2688 29.668 8.17262 29.7083C8.07644 29.7485 7.97333 29.7693 7.86918 29.7693H6.9066C6.80222 29.7696 6.69879 29.7492 6.60228 29.7091C6.50577 29.669 6.41809 29.61 6.34428 29.5356C6.27046 29.4611 6.21199 29.3727 6.17222 29.2754C6.13245 29.1781 6.11217 29.0738 6.11254 28.9685L6.1154 26.4021ZM1.28821 26.4021C1.28821 25.3047 1.85947 24.4002 2.56213 24.4002C3.26479 24.4002 3.83605 25.3047 3.83605 26.4021V28.9685C3.83605 29.1809 3.75239 29.3846 3.60348 29.5347C3.45456 29.6849 3.25259 29.7693 3.04199 29.7693H2.08227C1.87167 29.7693 1.6697 29.6849 1.52078 29.5347C1.37187 29.3846 1.28821 29.1809 1.28821 28.9685V26.4021Z" fill="#1450EA"/>
<path d="M49.5773 17.1187H15.687V21.9116H49.5773V17.1187Z" fill="#1450EA"/>
<path d="M35.4251 51.2859L35.4127 51.2891V51.2859H35.4251Z" fill="#47A035"/>
<path d="M9.52014 51.4067H55.1157C49.1174 55.4883 41.0883 58 32.3136 58C23.539 58 15.5099 55.4854 9.52014 51.4067Z" fill="#53E229"/>
<path d="M59.2831 47.6105C58.3844 48.5529 57.4213 49.4307 56.401 50.2374L32.6935 50.0559L8.59469 50.0127C6.44904 48.292 4.59326 46.2328 3.09912 43.9149C3.22679 43.2676 3.58505 42.6897 4.10627 42.2904C4.62749 41.8912 5.27562 41.6981 5.92831 41.7478C6.581 41.7974 7.19311 42.0862 7.64908 42.5598C8.10505 43.0333 8.37334 43.6588 8.40332 44.3182V44.3441C8.40332 45.2517 8.76083 46.122 9.3972 46.7638C10.0336 47.4055 10.8967 47.766 11.7966 47.766C12.6966 47.766 13.5597 47.4055 14.1961 46.7638C14.8324 46.122 15.1899 45.2517 15.1899 44.3441C15.2171 43.6495 15.5086 42.9921 16.0041 42.5087C16.4995 42.0253 17.1606 41.7531 17.85 41.7486C18.5393 41.7442 19.2038 42.0078 19.7054 42.4848C20.2069 42.9618 20.5068 43.6153 20.5427 44.3096V44.3441C20.5295 44.8017 20.6075 45.2572 20.7721 45.6838C20.9366 46.1104 21.1843 46.4994 21.5006 46.8277C21.8169 47.156 22.1952 47.417 22.6133 47.5952C23.0314 47.7735 23.4807 47.8653 23.9346 47.8653C24.3885 47.8653 24.8378 47.7735 25.2559 47.5952C25.6739 47.417 26.0523 47.156 26.3686 46.8277C26.6848 46.4994 26.9326 46.1104 27.0971 45.6838C27.2617 45.2572 27.3396 44.8017 27.3265 44.3441C27.3137 43.9818 27.3732 43.6205 27.5016 43.2819C27.63 42.9432 27.8246 42.634 28.0738 42.3727C28.3231 42.1114 28.6219 41.9033 28.9525 41.7607C29.2831 41.6182 29.6387 41.5441 29.9983 41.543C30.3578 41.5418 30.7139 41.6136 31.0454 41.754C31.3769 41.8944 31.6771 42.1006 31.928 42.3603C32.1789 42.62 32.3754 42.9279 32.506 43.2657C32.6365 43.6036 32.6983 43.9644 32.6878 44.3268V44.3441C32.6746 44.8017 32.7526 45.2572 32.9172 45.6838C33.0817 46.1104 33.3294 46.4994 33.6457 46.8277C33.962 47.156 34.3403 47.417 34.7584 47.5952C35.1765 47.7735 35.6258 47.8653 36.0797 47.8653C36.5336 47.8653 36.9829 47.7735 37.401 47.5952C37.819 47.417 38.1974 47.156 38.5137 46.8277C38.8299 46.4994 39.0777 46.1104 39.2422 45.6838C39.4067 45.2572 39.4847 44.8017 39.4716 44.3441C39.4716 43.6276 39.7538 42.9403 40.2563 42.4337C40.7588 41.927 41.4402 41.6423 42.1508 41.6423C42.8614 41.6423 43.5429 41.927 44.0453 42.4337C44.5478 42.9403 44.83 43.6276 44.83 44.3441C44.8169 44.8017 44.8949 45.2572 45.0594 45.6838C45.2239 46.1104 45.4717 46.4994 45.7879 46.8277C46.1042 47.156 46.4826 47.417 46.9007 47.5952C47.3187 47.7735 47.768 47.8653 48.2219 47.8653C48.6758 47.8653 49.1251 47.7735 49.5432 47.5952C49.9613 47.417 50.3397 47.156 50.6559 46.8277C50.9722 46.4994 51.2199 46.1104 51.3845 45.6838C51.549 45.2572 51.627 44.8017 51.6138 44.3441C51.6138 43.6276 51.8961 42.9403 52.3985 42.4337C52.901 41.927 53.5825 41.6423 54.293 41.6423C55.0036 41.6423 55.6851 41.927 56.1876 42.4337C56.69 42.9403 56.9723 43.6276 56.9723 44.3441C56.9709 44.3498 56.9709 44.3557 56.9723 44.3614C56.9761 45.0777 57.2006 45.775 57.6145 46.3571C58.0285 46.9391 58.6115 47.3771 59.2831 47.6105Z" fill="#53E229"/>
<path d="M65.1271 35.8845C64.6044 39.9631 62.7335 43.7681 59.8343 47.0085C59.2244 46.8838 58.6758 46.5506 58.2813 46.0651C57.8868 45.5797 57.6706 44.9718 57.6692 44.3442V44.3269C57.6948 43.8615 57.6259 43.3958 57.4667 42.9583C57.3074 42.5207 57.0612 42.1206 56.7432 41.7825C56.4252 41.4443 56.042 41.1752 55.6171 40.9917C55.1923 40.8082 54.7347 40.7142 54.2725 40.7154C53.8104 40.7165 53.3533 40.8129 52.9294 40.9986C52.5055 41.1842 52.1236 41.4553 51.8073 41.7951C51.4909 42.1348 51.2467 42.5362 51.0897 42.9746C50.9327 43.4129 50.8661 43.879 50.894 44.3442C50.894 44.3442 50.894 44.3643 50.894 44.3759C50.8899 45.0939 50.603 45.781 50.0965 46.2858C49.59 46.7906 48.9055 47.0718 48.1934 47.0676C47.4813 47.0634 46.8 46.7741 46.2994 46.2634C45.7988 45.7526 45.52 45.0623 45.5241 44.3442V44.3269C45.5373 43.8694 45.4593 43.4138 45.2948 42.9872C45.1302 42.5606 44.8825 42.1717 44.5662 41.8433C44.25 41.515 43.8716 41.254 43.4535 41.0758C43.0354 40.8976 42.5861 40.8057 42.1322 40.8057C41.6783 40.8057 41.229 40.8976 40.811 41.0758C40.3929 41.254 40.0145 41.515 39.6982 41.8433C39.382 42.1717 39.1342 42.5606 38.9697 42.9872C38.8052 43.4138 38.7272 43.8694 38.7403 44.3269V44.3586C38.7509 44.721 38.689 45.0819 38.5585 45.4197C38.428 45.7575 38.2314 46.0655 37.9805 46.3252C37.7296 46.5849 37.4295 46.791 37.098 46.9314C36.7665 47.0718 36.4104 47.1436 36.0508 47.1424C35.6913 47.1413 35.3356 47.0672 35.005 46.9247C34.6744 46.7822 34.3756 46.5741 34.1264 46.3127C33.8771 46.0514 33.6825 45.7422 33.5541 45.4036C33.4258 45.0649 33.3662 44.7036 33.379 44.3413V44.324C33.3922 43.8665 33.3142 43.4109 33.1497 42.9843C32.9851 42.5577 32.7374 42.1688 32.4211 41.8405C32.1049 41.5121 31.7265 41.2511 31.3084 41.0729C30.8903 40.8947 30.441 40.8028 29.9871 40.8028C29.5332 40.8028 29.0839 40.8947 28.6659 41.0729C28.2478 41.2511 27.8694 41.5121 27.5531 41.8405C27.2369 42.1688 26.9891 42.5577 26.8246 42.9843C26.6601 43.4109 26.5821 43.8665 26.5952 44.324V44.3586C26.6062 45.0751 26.3345 45.7668 25.8398 46.2813C25.3451 46.7958 24.668 47.0911 23.9574 47.1022C23.2469 47.1132 22.561 46.8392 22.0508 46.3403C21.5406 45.8415 21.2478 45.1587 21.2368 44.4421C21.2499 43.9846 21.172 43.529 21.0074 43.1024C20.8429 42.6758 20.5951 42.2869 20.2789 41.9585C19.9626 41.6302 19.5842 41.3692 19.1662 41.191C18.7481 41.0128 18.2988 40.9209 17.8449 40.9209C17.391 40.9209 16.9417 41.0128 16.5236 41.191C16.1055 41.3692 15.7272 41.6302 15.4109 41.9585C15.0946 42.2869 14.8469 42.6758 14.6824 43.1024C14.5178 43.529 14.4398 43.9846 14.453 44.4421C14.4516 44.4488 14.4516 44.4556 14.453 44.4623C14.4279 45.1632 14.1334 45.8268 13.6319 46.3128C13.1303 46.7987 12.461 47.069 11.7655 47.0664C11.07 47.0637 10.4027 46.7885 9.90482 46.2987C9.4069 45.809 9.11735 45.1432 9.09739 44.4421C9.10046 43.6524 8.83209 42.8859 8.33794 42.2732C7.8438 41.6606 7.1544 41.2394 6.38706 41.0816C5.61971 40.9237 4.82183 41.0388 4.12915 41.4073C3.43648 41.7758 2.89181 42.3749 2.58783 43.1027C1.29723 40.8856 0.460047 38.4303 0.125671 35.8816L65.1271 35.8845Z" fill="#53E229"/>
<path d="M65.1757 35.0864L65.2071 35.072C65.2328 34.7177 65.2528 34.3634 65.2556 34.0062L32.625 33.7585L0 33.6865V33.747C0 34.1848 0.017138 34.6111 0.0485576 35.0547H65.1757V35.0864Z" fill="#53E229"/>
<path d="M71.0797 13.7947H71.1431L71.0797 13.8208V13.7947Z" fill="url(#paint0_linear_439_34)"/>
</g>
<defs>
<linearGradient id="paint0_linear_439_34" x1="71.0797" y1="13.8063" x2="71.1431" y2="13.8063" gradientUnits="userSpaceOnUse">
<stop offset="0.03" stop-color="#20274B"/>
<stop offset="0.24" stop-color="#0F314C"/>
<stop offset="0.39" stop-color="#235644"/>
<stop offset="0.63" stop-color="#47A035"/>
<stop offset="0.74" stop-color="#5FB234"/>
<stop offset="0.84" stop-color="#53AF3F"/>
<stop offset="0.94" stop-color="#2AAB60"/>
<stop offset="1" stop-color="#0EAA6E"/>
</linearGradient>
<clipPath id="clip0_439_34">
<rect width="202" height="58" fill="white"/>
</clipPath>
</defs>
</svg>
